<svg width="331" height="222" viewBox="0 0 331 222" fill="none" xmlns="http://www.w3.org/2000/svg">
<g clip-path="url(#clip0_452_308)">
<path fill-rule="evenodd" clip-rule="evenodd" d="M89.4664 164.188C101.74 158.292 114.879 153.871 129.755 152.411C117.342 96.5702 93.6888 54.3658 49.2003 41.2717C54.8042 104.135 52.0271 153.617 39.5881 188.533C51.5802 181.126 65.2367 173.947 80.0998 167.222L57.3655 169.576C64.3905 140.127 66.3964 104.034 63.1152 62.8469C92.8755 83.8946 105.921 111.86 110.82 142.483L89.4664 164.188Z" fill="#FBFBFB"/>
<path fill-rule="evenodd" clip-rule="evenodd" d="M170.31 156.023L143.191 205.783L149.942 175.921C70.0842 186.928 27.4564 203.146 0.769531 221.595C68.8202 173.235 124.017 154.403 170.31 156.023Z" fill="#FBFBFB"/>
<path fill-rule="evenodd" clip-rule="evenodd" d="M152.689 0.662842L154.642 25.5286L162.525 19.3551L157.238 28.4057L178.617 30.0526L157.218 32.3159L162.022 41.2937L154.634 35.1805L152.8 59.946L150.944 35.2291L143.541 41.4021L148.265 32.3289L126.863 30.5649L148.332 28.4364L143.136 19.5729L150.991 25.5712L152.689 0.662842Z" fill="#FBFBFB"/>
<path d="M183.852 91.4262V98.619H185.731C186.314 98.619 186.779 98.5434 187.124 98.3922C187.47 98.2194 187.74 97.9818 187.934 97.6794C188.107 97.377 188.226 97.0098 188.291 96.5778C188.355 96.1242 188.388 95.6058 188.388 95.0226C188.388 94.4394 188.355 93.9318 188.291 93.4998C188.226 93.0462 188.096 92.6574 187.902 92.3334C187.491 91.7286 186.714 91.4262 185.569 91.4262H183.852ZM180.547 111.385V88.3158H185.861C189.749 88.3158 191.693 90.573 191.693 95.0874C191.693 96.4482 191.477 97.6038 191.045 98.5542C190.634 99.5046 189.9 100.271 188.841 100.855L192.405 111.385H188.906L185.828 101.535H183.852V111.385H180.547ZM194.342 111.385V88.3158H204.192V91.4262H197.647V98.1978H203.35V101.308H197.647V108.08H204.192V111.385H194.342ZM206.334 111.385V88.3158H211.291C212.199 88.3158 212.998 88.4346 213.689 88.6722C214.38 88.9098 215.007 89.331 215.568 89.9358C216.13 90.5406 216.519 91.2534 216.735 92.0742C216.951 92.8734 217.059 93.9642 217.059 95.3466C217.059 96.3834 216.994 97.2582 216.864 97.971C216.756 98.6838 216.508 99.3534 216.119 99.9798C215.665 100.736 215.061 101.33 214.305 101.762C213.549 102.172 212.555 102.377 211.324 102.377H209.639V111.385H206.334ZM209.639 91.4262V99.267H211.227C211.896 99.267 212.415 99.1698 212.782 98.9754C213.149 98.781 213.419 98.511 213.592 98.1654C213.765 97.8414 213.862 97.4418 213.883 96.9666C213.927 96.4914 213.948 95.9622 213.948 95.379C213.948 94.839 213.937 94.3314 213.916 93.8562C213.894 93.3594 213.797 92.9274 213.624 92.5602C213.451 92.193 213.192 91.9122 212.847 91.7178C212.501 91.5234 212.004 91.4262 211.356 91.4262H209.639ZM219.334 93.759C219.334 92.8302 219.496 92.0094 219.82 91.2966C220.144 90.5838 220.576 89.9898 221.116 89.5146C221.634 89.061 222.217 88.7154 222.865 88.4778C223.535 88.2402 224.205 88.1214 224.874 88.1214C225.544 88.1214 226.203 88.2402 226.851 88.4778C227.52 88.7154 228.125 89.061 228.665 89.5146C229.183 89.9898 229.605 90.5838 229.929 91.2966C230.253 92.0094 230.415 92.8302 230.415 93.759V105.941C230.415 106.913 230.253 107.745 229.929 108.436C229.605 109.127 229.183 109.7 228.665 110.153C228.125 110.629 227.52 110.985 226.851 111.223C226.203 111.46 225.544 111.579 224.874 111.579C224.205 111.579 223.535 111.46 222.865 111.223C222.217 110.985 221.634 110.629 221.116 110.153C220.576 109.7 220.144 109.127 219.82 108.436C219.496 107.745 219.334 106.913 219.334 105.941V93.759ZM222.639 105.941C222.639 106.741 222.855 107.335 223.287 107.723C223.74 108.091 224.269 108.274 224.874 108.274C225.479 108.274 225.997 108.091 226.429 107.723C226.883 107.335 227.11 106.741 227.11 105.941V93.759C227.11 92.9598 226.883 92.3766 226.429 92.0094C225.997 91.6206 225.479 91.4262 224.874 91.4262C224.269 91.4262 223.74 91.6206 223.287 92.0094C222.855 92.3766 222.639 92.9598 222.639 93.759V105.941ZM236.628 91.4262V98.619H238.508C239.091 98.619 239.555 98.5434 239.901 98.3922C240.246 98.2194 240.516 97.9818 240.711 97.6794C240.884 97.377 241.002 97.0098 241.067 96.5778C241.132 96.1242 241.164 95.6058 241.164 95.0226C241.164 94.4394 241.132 93.9318 241.067 93.4998C241.002 93.0462 240.873 92.6574 240.678 92.3334C240.268 91.7286 239.49 91.4262 238.346 91.4262H236.628ZM233.324 111.385V88.3158H238.637C242.525 88.3158 244.469 90.573 244.469 95.0874C244.469 96.4482 244.253 97.6038 243.821 98.5542C243.411 99.5046 242.676 100.271 241.618 100.855L245.182 111.385H241.683L238.605 101.535H236.628V111.385H233.324ZM248.72 111.385V91.4262H244.897V88.3158H255.848V91.4262H252.025V111.385H248.72ZM267.999 94.9578H264.694V94.2126C264.694 93.4566 264.511 92.8086 264.144 92.2686C263.798 91.707 263.204 91.4262 262.362 91.4262C261.908 91.4262 261.541 91.5126 261.26 91.6854C260.979 91.8582 260.752 92.0742 260.58 92.3334C260.407 92.6142 260.288 92.9382 260.223 93.3054C260.158 93.651 260.126 94.0182 260.126 94.407C260.126 94.8606 260.137 95.2386 260.158 95.541C260.202 95.8434 260.288 96.1134 260.418 96.351C260.547 96.5886 260.731 96.7938 260.968 96.9666C261.228 97.1394 261.573 97.3122 262.005 97.485L264.532 98.4894C265.267 98.7702 265.861 99.105 266.314 99.4938C266.768 99.861 267.124 100.293 267.384 100.79C267.621 101.308 267.783 101.902 267.87 102.572C267.956 103.22 267.999 103.965 267.999 104.807C267.999 105.779 267.902 106.687 267.708 107.529C267.513 108.35 267.2 109.052 266.768 109.635C266.314 110.24 265.72 110.715 264.986 111.061C264.252 111.406 263.355 111.579 262.297 111.579C261.498 111.579 260.752 111.439 260.061 111.158C259.37 110.877 258.776 110.488 258.279 109.991C257.782 109.495 257.383 108.922 257.08 108.274C256.8 107.605 256.659 106.881 256.659 106.103V104.872H259.964V105.909C259.964 106.514 260.137 107.065 260.482 107.561C260.85 108.037 261.454 108.274 262.297 108.274C262.858 108.274 263.29 108.199 263.593 108.047C263.917 107.875 264.165 107.637 264.338 107.335C264.511 107.032 264.608 106.676 264.63 106.265C264.673 105.833 264.694 105.358 264.694 104.84C264.694 104.235 264.673 103.738 264.63 103.349C264.586 102.961 264.5 102.647 264.37 102.41C264.219 102.172 264.014 101.978 263.755 101.827C263.517 101.675 263.193 101.513 262.783 101.341L260.418 100.369C258.992 99.7854 258.031 99.0186 257.534 98.0682C257.059 97.0962 256.821 95.8866 256.821 94.4394C256.821 93.5754 256.94 92.7546 257.178 91.977C257.415 91.1994 257.772 90.5298 258.247 89.9682C258.7 89.4066 259.273 88.9638 259.964 88.6398C260.677 88.2942 261.519 88.1214 262.491 88.1214C263.312 88.1214 264.057 88.2726 264.727 88.575C265.418 88.8774 266.012 89.277 266.509 89.7738C267.502 90.8106 267.999 91.9986 267.999 93.3378V94.9578ZM180.417 150.385V127.316H183.593L188.582 141.215H188.647V127.316H191.952V150.385H188.841L183.787 136.517H183.722V150.385H180.417ZM201.618 142.317L199.998 133.958H199.933L198.313 142.317H201.618ZM193.453 150.385L198.605 127.316H201.359L206.51 150.385H203.206L202.234 145.427H197.73L196.758 150.385H193.453ZM218.146 127.316L213.415 150.385H210.499L205.801 127.316H209.301L211.925 143.419H211.99L214.647 127.316H218.146ZM220.227 150.385V127.316H223.531V150.385H220.227ZM226.548 132.759C226.548 131.83 226.71 131.009 227.034 130.297C227.358 129.584 227.79 128.99 228.33 128.515C228.848 128.061 229.432 127.715 230.08 127.478C230.749 127.24 231.419 127.121 232.088 127.121C232.758 127.121 233.417 127.24 234.065 127.478C234.734 127.715 235.339 128.061 235.879 128.515C236.398 128.99 236.819 129.584 237.143 130.297C237.467 131.009 237.629 131.83 237.629 132.759V133.925H234.324V132.759C234.324 131.96 234.097 131.377 233.644 131.009C233.212 130.621 232.693 130.426 232.088 130.426C231.484 130.426 230.954 130.621 230.501 131.009C230.069 131.377 229.853 131.96 229.853 132.759V144.941C229.853 145.741 230.069 146.335 230.501 146.723C230.954 147.091 231.484 147.274 232.088 147.274C232.693 147.274 233.212 147.091 233.644 146.723C234.097 146.335 234.324 145.741 234.324 144.941V140.6H231.7V137.684H237.629V144.941C237.629 145.913 237.467 146.745 237.143 147.436C236.819 148.127 236.398 148.7 235.879 149.153C235.339 149.629 234.734 149.985 234.065 150.223C233.417 150.46 232.758 150.579 232.088 150.579C231.419 150.579 230.749 150.46 230.08 150.223C229.432 149.985 228.848 149.629 228.33 149.153C227.79 148.7 227.358 148.127 227.034 147.436C226.71 146.745 226.548 145.913 226.548 144.941V132.759ZM247.212 142.317L245.592 133.958H245.527L243.907 142.317H247.212ZM239.047 150.385L244.199 127.316H246.953L252.104 150.385H248.8L247.828 145.427H243.324L242.352 150.385H239.047ZM254.131 150.385V130.426H250.308V127.316H261.259V130.426H257.436V150.385H254.131ZM262.144 132.759C262.144 131.83 262.306 131.009 262.63 130.297C262.954 129.584 263.386 128.99 263.926 128.515C264.444 128.061 265.027 127.715 265.675 127.478C266.345 127.24 267.014 127.121 267.684 127.121C268.354 127.121 269.012 127.24 269.66 127.478C270.33 127.715 270.935 128.061 271.475 128.515C271.993 128.99 272.414 129.584 272.738 130.297C273.062 131.009 273.224 131.83 273.224 132.759V144.941C273.224 145.913 273.062 146.745 272.738 147.436C272.414 148.127 271.993 148.7 271.475 149.153C270.935 149.629 270.33 149.985 269.66 150.223C269.012 150.46 268.354 150.579 267.684 150.579C267.014 150.579 266.345 150.46 265.675 150.223C265.027 149.985 264.444 149.629 263.926 149.153C263.386 148.7 262.954 148.127 262.63 147.436C262.306 146.745 262.144 145.913 262.144 144.941V132.759ZM265.448 144.941C265.448 145.741 265.664 146.335 266.096 146.723C266.55 147.091 267.079 147.274 267.684 147.274C268.289 147.274 268.807 147.091 269.239 146.723C269.693 146.335 269.92 145.741 269.92 144.941V132.759C269.92 131.96 269.693 131.377 269.239 131.009C268.807 130.621 268.289 130.426 267.684 130.426C267.079 130.426 266.55 130.621 266.096 131.009C265.664 131.377 265.448 131.96 265.448 132.759V144.941ZM279.438 130.426V137.619H281.317C281.901 137.619 282.365 137.543 282.711 137.392C283.056 137.219 283.326 136.982 283.521 136.679C283.693 136.377 283.812 136.01 283.877 135.578C283.942 135.124 283.974 134.606 283.974 134.023C283.974 133.439 283.942 132.932 283.877 132.5C283.812 132.046 283.683 131.657 283.488 131.333C283.078 130.729 282.3 130.426 281.155 130.426H279.438ZM276.133 150.385V127.316H281.447C285.335 127.316 287.279 129.573 287.279 134.087C287.279 135.448 287.063 136.604 286.631 137.554C286.221 138.505 285.486 139.271 284.428 139.855L287.992 150.385H284.493L281.415 140.535H279.438V150.385H276.133Z" fill="#00B285"/>
<path d="M301.254 150.385V146.95H294.677V143.84L299.44 127.316H302.939L297.982 143.84H301.254V137.263H304.559V143.84H306.146V146.95H304.559V150.385H301.254ZM314.054 150.385V148.7H313.989C313.557 149.305 313.115 149.769 312.661 150.093C312.229 150.417 311.613 150.579 310.814 150.579C310.425 150.579 310.026 150.514 309.615 150.385C309.227 150.277 308.849 150.061 308.481 149.737C308.114 149.434 307.812 149.002 307.574 148.441C307.358 147.857 307.25 147.112 307.25 146.205C307.25 145.276 307.326 144.466 307.477 143.775C307.628 143.062 307.909 142.468 308.319 141.993C308.708 141.539 309.237 141.205 309.907 140.989C310.577 140.751 311.43 140.632 312.467 140.632C312.575 140.632 312.693 140.632 312.823 140.632C312.953 140.632 313.071 140.643 313.179 140.665C313.287 140.686 313.417 140.697 313.568 140.697C313.719 140.697 313.881 140.708 314.054 140.729V139.012C314.054 138.451 313.935 137.986 313.698 137.619C313.46 137.252 313.028 137.068 312.402 137.068C311.97 137.068 311.57 137.209 311.203 137.489C310.857 137.77 310.631 138.181 310.523 138.721H307.315C307.401 137.252 307.898 136.064 308.805 135.157C309.237 134.725 309.756 134.39 310.361 134.152C310.965 133.893 311.646 133.763 312.402 133.763C313.093 133.763 313.741 133.871 314.346 134.087C314.951 134.303 315.48 134.627 315.933 135.059C316.365 135.491 316.711 136.031 316.97 136.679C317.229 137.327 317.359 138.083 317.359 138.947V150.385H314.054ZM314.054 143.321C313.687 143.257 313.385 143.224 313.147 143.224C312.434 143.224 311.819 143.397 311.3 143.743C310.803 144.067 310.555 144.671 310.555 145.557C310.555 146.183 310.706 146.691 311.009 147.08C311.311 147.469 311.732 147.663 312.272 147.663C312.834 147.663 313.266 147.479 313.568 147.112C313.892 146.745 314.054 146.227 314.054 145.557V143.321ZM319.598 127.316H322.903V145.751C322.903 146.378 323.011 146.81 323.227 147.047C323.465 147.263 323.897 147.404 324.523 147.469V150.579C323.767 150.579 323.087 150.514 322.482 150.385C321.877 150.277 321.359 150.05 320.927 149.704C320.495 149.38 320.16 148.927 319.922 148.343C319.706 147.739 319.598 146.95 319.598 145.978V127.316ZM325.61 127.316H328.915V145.751C328.915 146.378 329.023 146.81 329.239 147.047C329.477 147.263 329.909 147.404 330.535 147.469V150.579C329.779 150.579 329.099 150.514 328.494 150.385C327.889 150.277 327.371 150.05 326.939 149.704C326.507 149.38 326.172 148.927 325.934 148.343C325.718 147.739 325.61 146.95 325.61 145.978V127.316Z" fill="#FBFBFB"/>
</g>
<defs>
<clipPath id="clip0_452_308">
<rect width="331" height="222" fill="white"/>
</clipPath>
</defs>
</svg>
