<svg width="209" height="86" viewBox="0 0 209 86" fill="none" xmlns="http://www.w3.org/2000/svg">
<path fill-rule="evenodd" clip-rule="evenodd" d="M34.8714 63.4528C39.5582 61.201 44.5758 59.5126 50.2563 58.9551C45.5161 37.6283 36.4838 21.5097 19.4948 16.5088C21.6348 40.5175 20.5743 59.4156 15.8242 72.7508C20.4037 69.9219 25.6187 67.18 31.2945 64.6115L22.6129 65.5105C25.2955 54.2634 26.0616 40.479 24.8086 24.7488C36.1732 32.7873 41.1547 43.4677 43.0256 55.1632L34.8714 63.4528Z" fill="#1E1E1E" stroke="#1E1E1E" stroke-width="0.205802" stroke-miterlimit="1.5" stroke-linecap="round" stroke-linejoin="round"/>
<path fill-rule="evenodd" clip-rule="evenodd" d="M65.7427 60.3344L55.3869 79.339L57.965 67.934C27.4694 72.1376 11.191 78.3316 1 85.3778C26.9867 66.9082 48.0648 59.7157 65.7427 60.3344Z" fill="#1E1E1E" stroke="#1E1E1E" stroke-width="0.205802" stroke-miterlimit="1.5" stroke-linecap="round" stroke-linejoin="round"/>
<path fill-rule="evenodd" clip-rule="evenodd" d="M59.0139 1L59.7595 10.4967L62.77 8.13891L60.751 11.5955L68.9149 12.2245L60.7432 13.0889L62.5779 16.5177L59.7566 14.183L59.0561 23.6414L58.3476 14.2015L55.5205 16.5591L57.3246 13.0939L49.1516 12.4202L57.3502 11.6072L55.3657 8.22212L58.3653 10.513L59.0139 1Z" fill="#1E1E1E" stroke="#1E1E1E" stroke-width="0.205802" stroke-miterlimit="1.5" stroke-linecap="round" stroke-linejoin="round"/>
<path d="M84.116 22.097V28.1886H85.7075C86.2014 28.1886 86.5947 28.1246 86.8874 27.9966C87.1801 27.8502 87.4088 27.649 87.5734 27.3929C87.7198 27.1368 87.8204 26.8258 87.8753 26.4599C87.9302 26.0758 87.9576 25.6367 87.9576 25.1428C87.9576 24.6489 87.9302 24.219 87.8753 23.8531C87.8204 23.469 87.7106 23.1397 87.546 22.8653C87.1984 22.3531 86.5399 22.097 85.5703 22.097H84.116ZM81.3171 39V19.4627H85.8173C89.1101 19.4627 90.7565 21.3744 90.7565 25.1977C90.7565 26.3502 90.5735 27.3289 90.2077 28.1338C89.8601 28.9387 89.2381 29.5881 88.3418 30.082L91.3602 39H88.3966L85.7898 30.6582H84.116V39H81.3171ZM93.0006 39V19.4627H101.342V22.097H95.7994V27.8319H100.629V30.4662H95.7994V36.2011H101.342V39H93.0006ZM103.157 39V19.4627H107.355C108.123 19.4627 108.8 19.5633 109.385 19.7646C109.971 19.9658 110.501 20.3225 110.977 20.8347C111.453 21.3469 111.782 21.9506 111.965 22.6458C112.148 23.3226 112.239 24.2464 112.239 25.4172C112.239 26.2953 112.184 27.0362 112.075 27.6398C111.983 28.2435 111.773 28.8106 111.443 29.3411C111.059 29.9814 110.547 30.4845 109.907 30.8503C109.267 31.1979 108.425 31.3717 107.382 31.3717H105.955V39H103.157ZM105.955 22.097V28.7374H107.3C107.867 28.7374 108.306 28.6551 108.617 28.4905C108.928 28.3258 109.157 28.0972 109.303 27.8045C109.449 27.5301 109.532 27.1917 109.55 26.7892C109.587 26.3868 109.605 25.9386 109.605 25.4446C109.605 24.9873 109.596 24.5574 109.578 24.155C109.559 23.7342 109.477 23.3684 109.331 23.0574C109.184 22.7464 108.965 22.5086 108.672 22.3439C108.379 22.1793 107.959 22.097 107.41 22.097H105.955ZM114.166 24.0726C114.166 23.286 114.303 22.5909 114.578 21.9872C114.852 21.3835 115.218 20.8805 115.675 20.478C116.114 20.0938 116.608 19.8012 117.157 19.5999C117.724 19.3987 118.291 19.2981 118.858 19.2981C119.426 19.2981 119.983 19.3987 120.532 19.5999C121.099 19.8012 121.612 20.0938 122.069 20.478C122.508 20.8805 122.865 21.3835 123.139 21.9872C123.413 22.5909 123.551 23.286 123.551 24.0726V34.3901C123.551 35.2133 123.413 35.9176 123.139 36.503C122.865 37.0883 122.508 37.5731 122.069 37.9573C121.612 38.3597 121.099 38.6616 120.532 38.8628C119.983 39.064 119.426 39.1646 118.858 39.1646C118.291 39.1646 117.724 39.064 117.157 38.8628C116.608 38.6616 116.114 38.3597 115.675 37.9573C115.218 37.5731 114.852 37.0883 114.578 36.503C114.303 35.9176 114.166 35.2133 114.166 34.3901V24.0726ZM116.965 34.3901C116.965 35.0669 117.148 35.57 117.514 35.8993C117.898 36.2103 118.346 36.3658 118.858 36.3658C119.371 36.3658 119.81 36.2103 120.176 35.8993C120.56 35.57 120.752 35.0669 120.752 34.3901V24.0726C120.752 23.3958 120.56 22.9019 120.176 22.5909C119.81 22.2616 119.371 22.097 118.858 22.097C118.346 22.097 117.898 22.2616 117.514 22.5909C117.148 22.9019 116.965 23.3958 116.965 24.0726V34.3901ZM128.813 22.097V28.1886H130.405C130.899 28.1886 131.292 28.1246 131.585 27.9966C131.877 27.8502 132.106 27.649 132.271 27.3929C132.417 27.1368 132.518 26.8258 132.572 26.4599C132.627 26.0758 132.655 25.6367 132.655 25.1428C132.655 24.6489 132.627 24.219 132.572 23.8531C132.518 23.469 132.408 23.1397 132.243 22.8653C131.896 22.3531 131.237 22.097 130.267 22.097H128.813ZM126.014 39V19.4627H130.514C133.807 19.4627 135.454 21.3744 135.454 25.1977C135.454 26.3502 135.271 27.3289 134.905 28.1338C134.557 28.9387 133.935 29.5881 133.039 30.082L136.057 39H133.094L130.487 30.6582H128.813V39H126.014ZM139.054 39V22.097H135.816V19.4627H145.091V22.097H141.853V39H139.054ZM155.382 25.0879H152.583V24.4568C152.583 23.8165 152.427 23.2677 152.116 22.8104C151.823 22.3348 151.32 22.097 150.607 22.097C150.223 22.097 149.912 22.1701 149.674 22.3165C149.436 22.4628 149.244 22.6458 149.098 22.8653C148.951 23.1031 148.851 23.3775 148.796 23.6885C148.741 23.9812 148.714 24.2922 148.714 24.6214C148.714 25.0056 148.723 25.3257 148.741 25.5818C148.778 25.838 148.851 26.0666 148.961 26.2678C149.07 26.4691 149.226 26.6429 149.427 26.7892C149.647 26.9356 149.939 27.0819 150.305 27.2282L152.445 28.0789C153.067 28.3167 153.57 28.6002 153.955 28.9295C154.339 29.2405 154.641 29.6064 154.86 30.0271C155.061 30.4662 155.199 30.9692 155.272 31.5363C155.345 32.0851 155.382 32.7162 155.382 33.4297C155.382 34.2529 155.299 35.0212 155.135 35.7346C154.97 36.4298 154.705 37.0243 154.339 37.5182C153.955 38.0305 153.452 38.4329 152.83 38.7256C152.208 39.0183 151.448 39.1646 150.552 39.1646C149.875 39.1646 149.244 39.0457 148.659 38.8079C148.073 38.5701 147.57 38.2408 147.15 37.8201C146.729 37.3993 146.39 36.9146 146.134 36.3658C145.896 35.7987 145.778 35.1858 145.778 34.5273V33.4846H148.576V34.3626C148.576 34.8749 148.723 35.3413 149.015 35.7621C149.326 36.1645 149.839 36.3658 150.552 36.3658C151.028 36.3658 151.394 36.3017 151.65 36.1737C151.924 36.0273 152.134 35.8261 152.281 35.57C152.427 35.3139 152.509 35.0121 152.528 34.6645C152.564 34.2986 152.583 33.8962 152.583 33.4571C152.583 32.9449 152.564 32.5242 152.528 32.1949C152.491 31.8656 152.418 31.6003 152.308 31.3991C152.18 31.1979 152.006 31.0333 151.787 30.9052C151.586 30.7771 151.311 30.6399 150.964 30.4936L148.961 29.6704C147.753 29.1765 146.939 28.5271 146.518 27.7222C146.116 26.899 145.915 25.8745 145.915 24.6489C145.915 23.9172 146.015 23.222 146.217 22.5634C146.418 21.9049 146.72 21.3378 147.122 20.8622C147.506 20.3865 147.991 20.0115 148.576 19.7371C149.18 19.4444 149.894 19.2981 150.717 19.2981C151.412 19.2981 152.043 19.4261 152.61 19.6822C153.195 19.9384 153.699 20.2768 154.119 20.6975C154.961 21.5756 155.382 22.5817 155.382 23.7159V25.0879ZM81.2074 70V50.4627H83.8965L88.1222 62.2345H88.1771V50.4627H90.976V70H88.3418L84.0611 58.2557H84.0062V70H81.2074ZM99.1623 63.1674L97.7903 56.0879H97.7355L96.3635 63.1674H99.1623ZM92.2475 70L96.6104 50.4627H98.9428L103.306 70H100.507L99.6837 65.8017H95.8695L95.0463 70H92.2475ZM113.16 50.4627L109.154 70H106.684L102.705 50.4627H105.669L107.891 64.1004H107.946L110.196 50.4627H113.16ZM114.922 70V50.4627H117.721V70H114.922ZM120.276 55.0726C120.276 54.286 120.413 53.5909 120.688 52.9872C120.962 52.3835 121.328 51.8805 121.785 51.478C122.224 51.0938 122.718 50.8012 123.267 50.5999C123.834 50.3987 124.401 50.2981 124.968 50.2981C125.535 50.2981 126.093 50.3987 126.642 50.5999C127.209 50.8012 127.721 51.0938 128.179 51.478C128.618 51.8805 128.974 52.3835 129.249 52.9872C129.523 53.5909 129.66 54.286 129.66 55.0726V56.0605H126.862V55.0726C126.862 54.3958 126.669 53.9019 126.285 53.5909C125.919 53.2616 125.48 53.097 124.968 53.097C124.456 53.097 124.008 53.2616 123.624 53.5909C123.258 53.9019 123.075 54.3958 123.075 55.0726V65.3901C123.075 66.0669 123.258 66.57 123.624 66.8993C124.008 67.2103 124.456 67.3658 124.968 67.3658C125.48 67.3658 125.919 67.2103 126.285 66.8993C126.669 66.57 126.862 66.0669 126.862 65.3901V61.7131H124.639V59.2435H129.66V65.3901C129.66 66.2133 129.523 66.9176 129.249 67.503C128.974 68.0883 128.618 68.5731 128.179 68.9573C127.721 69.3597 127.209 69.6616 126.642 69.8628C126.093 70.064 125.535 70.1646 124.968 70.1646C124.401 70.1646 123.834 70.064 123.267 69.8628C122.718 69.6616 122.224 69.3597 121.785 68.9573C121.328 68.5731 120.962 68.0883 120.688 67.503C120.413 66.9176 120.276 66.2133 120.276 65.3901V55.0726ZM137.777 63.1674L136.405 56.0879H136.35L134.978 63.1674H137.777ZM130.862 70L135.225 50.4627H137.557L141.92 70H139.121L138.298 65.8017H134.484L133.661 70H130.862ZM143.636 70V53.097H140.398V50.4627H149.673V53.097H146.435V70H143.636ZM150.422 55.0726C150.422 54.286 150.56 53.5909 150.834 52.9872C151.108 52.3835 151.474 51.8805 151.932 51.478C152.371 51.0938 152.865 50.8012 153.413 50.5999C153.98 50.3987 154.548 50.2981 155.115 50.2981C155.682 50.2981 156.24 50.3987 156.788 50.5999C157.356 50.8012 157.868 51.0938 158.325 51.478C158.764 51.8805 159.121 52.3835 159.395 52.9872C159.67 53.5909 159.807 54.286 159.807 55.0726V65.3901C159.807 66.2133 159.67 66.9176 159.395 67.503C159.121 68.0883 158.764 68.5731 158.325 68.9573C157.868 69.3597 157.356 69.6616 156.788 69.8628C156.24 70.064 155.682 70.1646 155.115 70.1646C154.548 70.1646 153.98 70.064 153.413 69.8628C152.865 69.6616 152.371 69.3597 151.932 68.9573C151.474 68.5731 151.108 68.0883 150.834 67.503C150.56 66.9176 150.422 66.2133 150.422 65.3901V55.0726ZM153.221 65.3901C153.221 66.0669 153.404 66.57 153.77 66.8993C154.154 67.2103 154.602 67.3658 155.115 67.3658C155.627 67.3658 156.066 67.2103 156.432 66.8993C156.816 66.57 157.008 66.0669 157.008 65.3901V55.0726C157.008 54.3958 156.816 53.9019 156.432 53.5909C156.066 53.2616 155.627 53.097 155.115 53.097C154.602 53.097 154.154 53.2616 153.77 53.5909C153.404 53.9019 153.221 54.3958 153.221 55.0726V65.3901ZM165.069 53.097V59.1886H166.661C167.155 59.1886 167.548 59.1246 167.841 58.9966C168.133 58.8502 168.362 58.649 168.527 58.3929C168.673 58.1368 168.774 57.8258 168.829 57.4599C168.883 57.0758 168.911 56.6367 168.911 56.1428C168.911 55.6489 168.883 55.219 168.829 54.8531C168.774 54.469 168.664 54.1397 168.499 53.8653C168.152 53.3531 167.493 53.097 166.524 53.097H165.069ZM162.27 70V50.4627H166.771C170.063 50.4627 171.71 52.3744 171.71 56.1977C171.71 57.3502 171.527 58.3289 171.161 59.1338C170.813 59.9387 170.191 60.5881 169.295 61.082L172.313 70H169.35L166.743 61.6582H165.069V70H162.27Z" fill="#008D6A"/>
<path d="M183.545 70V67.0914H177.975V64.4571L182.009 50.4627H184.972L180.774 64.4571H183.545V58.8868H186.344V64.4571H187.689V67.0914H186.344V70H183.545ZM194.386 70V68.5731H194.331C193.965 69.0853 193.59 69.4786 193.206 69.753C192.84 70.0274 192.319 70.1646 191.642 70.1646C191.313 70.1646 190.974 70.1098 190.627 70C190.298 69.9085 189.977 69.7256 189.666 69.4512C189.356 69.1951 189.099 68.8292 188.898 68.3536C188.715 67.8597 188.624 67.2286 188.624 66.4602C188.624 65.6736 188.688 64.9876 188.816 64.4022C188.944 63.7986 189.182 63.2955 189.529 62.893C189.859 62.5089 190.307 62.2253 190.874 62.0424C191.441 61.8412 192.164 61.7406 193.042 61.7406C193.133 61.7406 193.234 61.7406 193.343 61.7406C193.453 61.7406 193.554 61.7497 193.645 61.768C193.737 61.7863 193.847 61.7954 193.975 61.7954C194.103 61.7954 194.24 61.8046 194.386 61.8229V60.3686C194.386 59.8929 194.286 59.4996 194.084 59.1886C193.883 58.8777 193.517 58.7222 192.987 58.7222C192.621 58.7222 192.282 58.8411 191.971 59.0789C191.679 59.3167 191.487 59.6643 191.395 60.1216H188.679C188.752 58.8777 189.173 57.8715 189.941 57.1032C190.307 56.7373 190.746 56.4538 191.258 56.2526C191.77 56.033 192.346 55.9233 192.987 55.9233C193.572 55.9233 194.121 56.0148 194.633 56.1977C195.145 56.3806 195.594 56.655 195.978 57.0209C196.344 57.3868 196.636 57.8441 196.856 58.3929C197.075 58.9417 197.185 59.5819 197.185 60.3137V70H194.386ZM194.386 64.0181C194.075 63.9632 193.819 63.9358 193.618 63.9358C193.014 63.9358 192.493 64.0821 192.054 64.3748C191.633 64.6492 191.423 65.1614 191.423 65.9114C191.423 66.4419 191.551 66.8718 191.807 67.2011C192.063 67.5304 192.42 67.695 192.877 67.695C193.353 67.695 193.718 67.5395 193.975 67.2286C194.249 66.9176 194.386 66.4785 194.386 65.9114V64.0181ZM199.082 50.4627H201.881V66.0761C201.881 66.6066 201.972 66.9725 202.155 67.1737C202.356 67.3566 202.722 67.4755 203.253 67.5304V70.1646C202.612 70.1646 202.036 70.1098 201.524 70C201.012 69.9085 200.573 69.7165 200.207 69.4238C199.841 69.1494 199.557 68.7652 199.356 68.2713C199.173 67.7591 199.082 67.0914 199.082 66.2682V50.4627ZM204.173 50.4627H206.972V66.0761C206.972 66.6066 207.063 66.9725 207.246 67.1737C207.448 67.3566 207.813 67.4755 208.344 67.5304V70.1646C207.704 70.1646 207.127 70.1098 206.615 70C206.103 69.9085 205.664 69.7165 205.298 69.4238C204.932 69.1494 204.649 68.7652 204.447 68.2713C204.265 67.7591 204.173 67.0914 204.173 66.2682V50.4627Z" fill="#1E1E1E"/>
</svg>
