<svg width="174" height="53" viewBox="0 0 174 53" fill="none" xmlns="http://www.w3.org/2000/svg">
<path fill-rule="evenodd" clip-rule="evenodd" d="M106.109 2.35205L105.919 26.9415L115.429 36.6869L105.266 49.4696L123.022 44.1707L135.924 31.5842L136.182 19.4039L144.052 20.4428L142.37 13.3021L135.847 10.918L131.121 15.3608L124.943 3.079L119.296 15.4036L119.204 15.5952L106.109 2.35205Z" stroke="#00B285" stroke-width="2.9155" stroke-miterlimit="1.5" stroke-linecap="round" stroke-linejoin="round"/>
<path d="M135.855 10.9136L136.187 19.3994" stroke="#00B285" stroke-width="2.9155" stroke-miterlimit="1.5" stroke-linecap="round" stroke-linejoin="round"/>
<path d="M105.925 26.938L124.71 20.8501" stroke="#00B285" stroke-width="2.9155" stroke-miterlimit="1.5" stroke-linecap="round" stroke-linejoin="round"/>
<path d="M123.034 44.157L115.396 36.6846" stroke="#00B285" stroke-width="2.9155" stroke-miterlimit="1.5" stroke-linecap="round" stroke-linejoin="round"/>
<path d="M135.919 31.5844L119.135 15.5281" stroke="#00B285" stroke-width="2.9155" stroke-miterlimit="1.5" stroke-linecap="round" stroke-linejoin="round"/>
<path d="M131.133 15.3478L126.103 19.7388L124.705 20.8516" stroke="#00B285" stroke-width="2.9155" stroke-miterlimit="1.5" stroke-linecap="round" stroke-linejoin="round"/>
<path d="M124.703 20.851L123.028 44.1688" stroke="#00B285" stroke-width="2.9155" stroke-miterlimit="1.5" stroke-linecap="round" stroke-linejoin="round"/>
<path d="M124.624 22.8803C125.867 22.8803 126.875 21.896 126.875 20.6818C126.875 19.4677 125.867 18.4834 124.624 18.4834C123.381 18.4834 122.373 19.4677 122.373 20.6818C122.373 21.896 123.381 22.8803 124.624 22.8803Z" fill="#00B285"/>
<path fill-rule="evenodd" clip-rule="evenodd" d="M124.624 18.4829C125.866 18.4829 126.875 19.468 126.875 20.6817C126.875 21.895 125.866 22.8801 124.624 22.8801C123.381 22.8801 122.373 21.895 122.373 20.6817C122.373 19.468 123.381 18.4829 124.624 18.4829ZM124.624 22.3182C123.699 22.3182 122.948 21.585 122.948 20.6817C122.948 19.7784 123.699 19.0449 124.624 19.0449C125.549 19.0449 126.3 19.7784 126.3 20.6817C126.3 21.585 125.549 22.3182 124.624 22.3182Z" fill="#00B285"/>
<path d="M105.891 27.9697C106.512 27.9697 107.016 27.4774 107.016 26.8703C107.016 26.2631 106.512 25.7709 105.891 25.7709C105.269 25.7709 104.765 26.2631 104.765 26.8703C104.765 27.4774 105.269 27.9697 105.891 27.9697Z" fill="#00B285"/>
<path d="M123.161 45.5003C123.938 45.5003 124.568 44.885 124.568 44.1261C124.568 43.3672 123.938 42.752 123.161 42.752C122.384 42.752 121.754 43.3672 121.754 44.1261C121.754 44.885 122.384 45.5003 123.161 45.5003Z" fill="#00B285"/>
<path d="M135.858 32.9049C136.635 32.9049 137.265 32.2897 137.265 31.5308C137.265 30.7718 136.635 30.1566 135.858 30.1566C135.081 30.1566 134.451 30.7718 134.451 31.5308C134.451 32.2897 135.081 32.9049 135.858 32.9049Z" fill="#00B285"/>
<path d="M136.385 20.5868C137.007 20.5868 137.511 20.0946 137.511 19.4875C137.511 18.8803 137.007 18.3881 136.385 18.3881C135.763 18.3881 135.259 18.8803 135.259 19.4875C135.259 20.0946 135.763 20.5868 136.385 20.5868Z" fill="#00B285"/>
<path d="M135.796 12.3063C136.604 12.3063 137.259 11.6665 137.259 10.8773C137.259 10.088 136.604 9.44824 135.796 9.44824C134.988 9.44824 134.333 10.088 134.333 10.8773C134.333 11.6665 134.988 12.3063 135.796 12.3063Z" fill="#00B285"/>
<path d="M119.188 17.0515C119.966 17.0515 120.595 16.4363 120.595 15.6774C120.595 14.9185 119.966 14.3032 119.188 14.3032C118.411 14.3032 117.781 14.9185 117.781 15.6774C117.781 16.4363 118.411 17.0515 119.188 17.0515Z" fill="#00B285"/>
<path d="M144.069 21.3571C144.69 21.3571 145.194 20.8649 145.194 20.2577C145.194 19.6505 144.69 19.1583 144.069 19.1583C143.447 19.1583 142.943 19.6505 142.943 20.2577C142.943 20.8649 143.447 21.3571 144.069 21.3571Z" fill="#00B285"/>
<path d="M131.27 16.5751C132.047 16.5751 132.677 15.9599 132.677 15.2009C132.677 14.442 132.047 13.8268 131.27 13.8268C130.493 13.8268 129.863 14.442 129.863 15.2009C129.863 15.9599 130.493 16.5751 131.27 16.5751Z" fill="#00B285"/>
<path d="M115.429 38.6492C116.424 38.6492 117.23 37.8616 117.23 36.8901C117.23 35.9187 116.424 35.1311 115.429 35.1311C114.435 35.1311 113.628 35.9187 113.628 36.8901C113.628 37.8616 114.435 38.6492 115.429 38.6492Z" fill="#00B285"/>
<path d="M124.958 4.19879C125.58 4.19879 126.084 3.70657 126.084 3.09939C126.084 2.49222 125.58 2 124.958 2C124.336 2 123.832 2.49222 123.832 3.09939C123.832 3.70657 124.336 4.19879 124.958 4.19879Z" fill="#00B285"/>
<path d="M142.396 14.2549C143.018 14.2549 143.522 13.7627 143.522 13.1555C143.522 12.5484 143.018 12.0562 142.396 12.0562C141.775 12.0562 141.271 12.5484 141.271 13.1555C141.271 13.7627 141.775 14.2549 142.396 14.2549Z" fill="#00B285"/>
<path d="M105.476 50.4441C106.098 50.4441 106.602 49.9519 106.602 49.3448C106.602 48.7376 106.098 48.2454 105.476 48.2454C104.855 48.2454 104.351 48.7376 104.351 49.3448C104.351 49.9519 104.855 50.4441 105.476 50.4441Z" fill="#00B285"/>
<path fill-rule="evenodd" clip-rule="evenodd" d="M173 45.8799C172.344 47.0877 171.456 48.0266 170.337 48.6969C169.217 49.3665 167.946 49.7141 166.521 49.7383C164.506 49.7628 162.774 49.0562 161.332 47.6189C159.89 46.1819 159.171 44.4667 159.171 42.4747C159.171 40.4219 159.895 38.7133 161.343 37.3485C162.752 35.9961 164.481 35.3261 166.521 35.3378C167.946 35.3499 169.24 35.7061 170.401 36.4065C171.515 37.0948 172.383 38.0185 173 39.1779H171.386C170.196 37.4876 168.538 36.6543 166.411 36.6781C164.826 36.6781 163.462 37.237 162.317 38.3536C161.172 39.4706 160.58 40.8144 160.543 42.3839C160.507 44.0142 161.079 45.4243 162.261 46.6137C163.442 47.8029 164.862 48.3976 166.521 48.3976C167.489 48.3976 168.429 48.1522 169.344 47.6607C170.222 47.1929 170.909 46.5996 171.403 45.8799H173Z" fill="#00B285" stroke="#00B285" stroke-width="0.584499" stroke-miterlimit="2" stroke-linecap="round" stroke-linejoin="round"/>
<path fill-rule="evenodd" clip-rule="evenodd" d="M145.681 45.6273C145.689 46.2358 145.574 46.7967 145.337 47.3097C145.131 47.7536 144.835 48.1619 144.447 48.5344C143.977 48.9872 143.45 49.3127 142.866 49.5102C142.415 49.6628 141.931 49.739 141.413 49.739C140.223 49.739 139.216 49.3404 138.385 48.5433C137.557 47.7463 137.137 46.7501 137.125 45.5548H138.624C138.613 46.3204 138.876 46.9828 139.421 47.5416C139.962 48.1012 140.616 48.3866 141.382 48.3984C142.185 48.4108 142.872 48.145 143.448 47.6013C143.475 47.5751 143.503 47.5485 143.529 47.5216C143.977 47.0653 144.222 46.5275 144.266 45.9086C144.273 45.8102 144.276 45.7098 144.273 45.6076C144.234 44.3149 143.361 43.4088 141.649 42.889L140.131 42.4271C139.326 42.1852 138.7 41.7654 138.256 41.1672C137.81 40.5687 137.583 39.8528 137.569 39.0185C137.557 37.9916 137.948 37.1179 138.739 36.3989C139.53 35.6799 140.465 35.3268 141.542 35.3385C142.606 35.3506 143.509 35.7279 144.253 36.4707C144.997 37.2132 145.367 38.1038 145.367 39.1424H143.868C143.88 38.4855 143.661 37.9194 143.209 37.4452C142.76 36.9709 142.207 36.7155 141.554 36.6789C140.863 36.6426 140.254 36.8639 139.729 37.3423C139.205 37.8214 138.955 38.3941 138.98 39.0603C139.006 40.151 139.55 40.86 140.613 41.1872L142.342 41.7147C144.545 42.3912 145.659 43.695 145.681 45.6273Z" fill="#00B285" stroke="#00B285" stroke-width="0.584499" stroke-miterlimit="2" stroke-linecap="round" stroke-linejoin="round"/>
<path fill-rule="evenodd" clip-rule="evenodd" d="M152.477 43.5527L149.763 37.179L146.988 43.5527H152.477ZM156.605 49.5122H155.011L152.98 44.8026H146.363L145.318 47.2578L143.909 48.5074L142.793 49.5122H142.549L143.552 47.7241L144.329 46.8505L145.17 43.7888L148.936 35.5642H150.533L156.605 49.5122Z" fill="#00B285" stroke="#00B285" stroke-width="0.584499" stroke-miterlimit="2" stroke-linecap="round" stroke-linejoin="round"/>
<path fill-rule="evenodd" clip-rule="evenodd" d="M159.029 41.5237L156.316 47.8974L153.54 41.5237H159.029ZM161.496 39.3777L161.675 37.695L159.877 39.4723L159.531 40.2738H152.914L150.911 35.5642H149.101L155.488 49.5122H157.084L160.673 41.2707L160.304 39.9694L161.496 39.3777Z" fill="#00B285" stroke="#00B285" stroke-width="0.584499" stroke-miterlimit="2" stroke-linecap="round" stroke-linejoin="round"/>
<path d="M3.024 40.89H5.112C5.688 40.89 6.174 40.83 6.57 40.71C6.978 40.59 7.302 40.434 7.542 40.242C7.782 40.038 7.956 39.804 8.064 39.54C8.172 39.264 8.226 38.97 8.226 38.658C8.226 38.358 8.172 38.076 8.064 37.812C7.956 37.536 7.782 37.296 7.542 37.092C7.302 36.888 6.978 36.732 6.57 36.624C6.174 36.504 5.688 36.444 5.112 36.444H3.024V40.89ZM1.728 35.256H5.436C6.732 35.256 7.752 35.538 8.496 36.102C9.252 36.666 9.63 37.518 9.63 38.658C9.63 39.798 9.252 40.656 8.496 41.232C7.752 41.796 6.732 42.078 5.436 42.078H3.024V48H1.728V35.256ZM18.8499 43.788C18.8499 43.32 18.7719 42.882 18.6159 42.474C18.4719 42.066 18.2619 41.712 17.9859 41.412C17.7099 41.112 17.3739 40.878 16.9779 40.71C16.5939 40.53 16.1559 40.44 15.6639 40.44C15.1719 40.44 14.7279 40.53 14.3319 40.71C13.9479 40.878 13.6179 41.112 13.3419 41.412C13.0779 41.712 12.8679 42.066 12.7119 42.474C12.5679 42.882 12.4959 43.32 12.4959 43.788C12.4959 44.256 12.5679 44.694 12.7119 45.102C12.8679 45.51 13.0779 45.864 13.3419 46.164C13.6179 46.464 13.9479 46.704 14.3319 46.884C14.7279 47.052 15.1719 47.136 15.6639 47.136C16.1559 47.136 16.5939 47.052 16.9779 46.884C17.3739 46.704 17.7099 46.464 17.9859 46.164C18.2619 45.864 18.4719 45.51 18.6159 45.102C18.7719 44.694 18.8499 44.256 18.8499 43.788ZM20.1459 43.788C20.1459 44.424 20.0319 45.012 19.8039 45.552C19.5879 46.092 19.2819 46.56 18.8859 46.956C18.4899 47.352 18.0159 47.664 17.4639 47.892C16.9239 48.108 16.3239 48.216 15.6639 48.216C15.0159 48.216 14.4159 48.108 13.8639 47.892C13.3239 47.664 12.8559 47.352 12.4599 46.956C12.0639 46.56 11.7519 46.092 11.5239 45.552C11.3079 45.012 11.1999 44.424 11.1999 43.788C11.1999 43.152 11.3079 42.564 11.5239 42.024C11.7519 41.484 12.0639 41.016 12.4599 40.62C12.8559 40.224 13.3239 39.918 13.8639 39.702C14.4159 39.474 15.0159 39.36 15.6639 39.36C16.3239 39.36 16.9239 39.474 17.4639 39.702C18.0159 39.918 18.4899 40.224 18.8859 40.62C19.2819 41.016 19.5879 41.484 19.8039 42.024C20.0319 42.564 20.1459 43.152 20.1459 43.788ZM22.6619 39.576L24.6059 46.416H24.6419L26.8919 39.576H28.1159L30.3659 46.416H30.4019L32.3459 39.576H33.7499L31.0859 48H29.7539L27.5219 41.088H27.4859L25.2539 48H23.9219L21.2579 39.576H22.6619ZM41.8441 43.14C41.8441 42.336 41.6041 41.688 41.1241 41.196C40.6441 40.692 39.9721 40.44 39.1081 40.44C38.7241 40.44 38.3521 40.518 37.9921 40.674C37.6321 40.818 37.3141 41.016 37.0381 41.268C36.7741 41.52 36.5581 41.808 36.3901 42.132C36.2341 42.456 36.1561 42.792 36.1561 43.14H41.8441ZM36.1201 44.112C36.1561 44.532 36.2581 44.928 36.4261 45.3C36.5941 45.672 36.8161 45.996 37.0921 46.272C37.3681 46.536 37.6861 46.746 38.0461 46.902C38.4061 47.058 38.7961 47.136 39.2161 47.136C39.8521 47.136 40.3981 46.992 40.8541 46.704C41.3221 46.404 41.6761 46.062 41.9161 45.678L42.8341 46.434C42.3301 47.07 41.7721 47.526 41.1601 47.802C40.5601 48.078 39.9121 48.216 39.2161 48.216C38.5921 48.216 38.0101 48.108 37.4701 47.892C36.9421 47.664 36.4861 47.352 36.1021 46.956C35.7181 46.56 35.4121 46.092 35.1841 45.552C34.9681 45.012 34.8601 44.424 34.8601 43.788C34.8601 43.152 34.9681 42.564 35.1841 42.024C35.4001 41.484 35.7001 41.016 36.0841 40.62C36.4681 40.224 36.9181 39.918 37.4341 39.702C37.9501 39.474 38.5081 39.36 39.1081 39.36C39.7441 39.36 40.3141 39.474 40.8181 39.702C41.3221 39.93 41.7421 40.236 42.0781 40.62C42.4261 40.992 42.6901 41.436 42.8701 41.952C43.0501 42.456 43.1401 42.996 43.1401 43.572V44.112H36.1201ZM45.42 42.204C45.42 41.832 45.408 41.454 45.384 41.07C45.372 40.686 45.36 40.188 45.348 39.576H46.518V41.142H46.554C46.638 40.914 46.758 40.698 46.914 40.494C47.07 40.278 47.256 40.086 47.472 39.918C47.7 39.75 47.958 39.618 48.246 39.522C48.546 39.414 48.882 39.36 49.254 39.36C49.59 39.36 49.884 39.396 50.136 39.468L49.902 40.638C49.746 40.578 49.518 40.548 49.218 40.548C48.762 40.548 48.372 40.638 48.048 40.818C47.724 40.986 47.454 41.208 47.238 41.484C47.022 41.748 46.86 42.036 46.752 42.348C46.656 42.66 46.608 42.96 46.608 43.248V48H45.42V42.204ZM57.5062 43.14C57.5062 42.336 57.2662 41.688 56.7862 41.196C56.3062 40.692 55.6342 40.44 54.7702 40.44C54.3862 40.44 54.0142 40.518 53.6542 40.674C53.2942 40.818 52.9762 41.016 52.7002 41.268C52.4362 41.52 52.2202 41.808 52.0522 42.132C51.8962 42.456 51.8182 42.792 51.8182 43.14H57.5062ZM51.7822 44.112C51.8182 44.532 51.9202 44.928 52.0882 45.3C52.2562 45.672 52.4782 45.996 52.7542 46.272C53.0302 46.536 53.3482 46.746 53.7082 46.902C54.0682 47.058 54.4582 47.136 54.8782 47.136C55.5142 47.136 56.0602 46.992 56.5162 46.704C56.9842 46.404 57.3382 46.062 57.5782 45.678L58.4962 46.434C57.9922 47.07 57.4342 47.526 56.8222 47.802C56.2222 48.078 55.5742 48.216 54.8782 48.216C54.2542 48.216 53.6722 48.108 53.1322 47.892C52.6042 47.664 52.1482 47.352 51.7642 46.956C51.3802 46.56 51.0742 46.092 50.8462 45.552C50.6302 45.012 50.5222 44.424 50.5222 43.788C50.5222 43.152 50.6302 42.564 50.8462 42.024C51.0622 41.484 51.3622 41.016 51.7462 40.62C52.1302 40.224 52.5802 39.918 53.0962 39.702C53.6122 39.474 54.1702 39.36 54.7702 39.36C55.4062 39.36 55.9762 39.474 56.4802 39.702C56.9842 39.93 57.4042 40.236 57.7402 40.62C58.0882 40.992 58.3522 41.436 58.5322 41.952C58.7122 42.456 58.8022 42.996 58.8022 43.572V44.112H51.7822ZM61.6762 43.788C61.6762 44.256 61.7482 44.694 61.8922 45.102C62.0482 45.51 62.2642 45.864 62.5402 46.164C62.8162 46.464 63.1462 46.704 63.5302 46.884C63.9262 47.052 64.3702 47.136 64.8622 47.136C65.3422 47.136 65.7862 47.052 66.1942 46.884C66.6142 46.704 66.9742 46.464 67.2742 46.164C67.5742 45.864 67.8082 45.51 67.9762 45.102C68.1442 44.694 68.2282 44.256 68.2282 43.788C68.2282 43.32 68.1442 42.882 67.9762 42.474C67.8082 42.066 67.5742 41.712 67.2742 41.412C66.9742 41.112 66.6142 40.878 66.1942 40.71C65.7862 40.53 65.3422 40.44 64.8622 40.44C64.3702 40.44 63.9262 40.53 63.5302 40.71C63.1462 40.878 62.8162 41.112 62.5402 41.412C62.2642 41.712 62.0482 42.066 61.8922 42.474C61.7482 42.882 61.6762 43.32 61.6762 43.788ZM69.3622 48H68.1742V46.596H68.1382C67.9462 46.884 67.7182 47.13 67.4542 47.334C67.1902 47.538 66.9142 47.706 66.6262 47.838C66.3382 47.97 66.0382 48.066 65.7262 48.126C65.4262 48.186 65.1382 48.216 64.8622 48.216C64.2022 48.216 63.5962 48.108 63.0442 47.892C62.5042 47.664 62.0362 47.352 61.6402 46.956C61.2442 46.56 60.9322 46.092 60.7042 45.552C60.4882 45.012 60.3802 44.424 60.3802 43.788C60.3802 43.152 60.4882 42.564 60.7042 42.024C60.9322 41.484 61.2442 41.016 61.6402 40.62C62.0362 40.224 62.5042 39.918 63.0442 39.702C63.5962 39.474 64.2022 39.36 64.8622 39.36C65.1382 39.36 65.4262 39.39 65.7262 39.45C66.0382 39.51 66.3382 39.606 66.6262 39.738C66.9142 39.87 67.1902 40.038 67.4542 40.242C67.7182 40.446 67.9462 40.692 68.1382 40.98H68.1742V34.392H69.3622V48ZM84.6558 43.788C84.6558 43.32 84.5778 42.882 84.4218 42.474C84.2778 42.066 84.0678 41.712 83.7918 41.412C83.5158 41.112 83.1798 40.878 82.7838 40.71C82.3998 40.53 81.9618 40.44 81.4698 40.44C80.9778 40.44 80.5278 40.53 80.1198 40.71C79.7118 40.878 79.3578 41.112 79.0578 41.412C78.7578 41.712 78.5238 42.066 78.3558 42.474C78.1878 42.882 78.1038 43.32 78.1038 43.788C78.1038 44.256 78.1878 44.694 78.3558 45.102C78.5238 45.51 78.7578 45.864 79.0578 46.164C79.3578 46.464 79.7118 46.704 80.1198 46.884C80.5278 47.052 80.9778 47.136 81.4698 47.136C81.9618 47.136 82.3998 47.052 82.7838 46.884C83.1798 46.704 83.5158 46.464 83.7918 46.164C84.0678 45.864 84.2778 45.51 84.4218 45.102C84.5778 44.694 84.6558 44.256 84.6558 43.788ZM76.9698 34.392H78.1578V40.98H78.1938C78.3858 40.692 78.6138 40.446 78.8778 40.242C79.1418 40.038 79.4178 39.87 79.7058 39.738C79.9938 39.606 80.2878 39.51 80.5878 39.45C80.8998 39.39 81.1938 39.36 81.4698 39.36C82.1298 39.36 82.7298 39.474 83.2698 39.702C83.8218 39.918 84.2958 40.224 84.6918 40.62C85.0878 41.016 85.3938 41.484 85.6098 42.024C85.8378 42.564 85.9518 43.152 85.9518 43.788C85.9518 44.424 85.8378 45.012 85.6098 45.552C85.3938 46.092 85.0878 46.56 84.6918 46.956C84.2958 47.352 83.8218 47.664 83.2698 47.892C82.7298 48.108 82.1298 48.216 81.4698 48.216C81.1938 48.216 80.8998 48.186 80.5878 48.126C80.2878 48.066 79.9938 47.97 79.7058 47.838C79.4178 47.706 79.1418 47.538 78.8778 47.334C78.6138 47.13 78.3858 46.884 78.1938 46.596H78.1578V48H76.9698V34.392ZM91.1057 46.542L93.6797 39.576H95.1197L90.9077 50.196C90.6557 50.844 90.3317 51.36 89.9357 51.744C89.5517 52.128 88.9937 52.32 88.2617 52.32C88.0817 52.32 87.8957 52.314 87.7037 52.302C87.5237 52.29 87.3437 52.254 87.1637 52.194L87.2897 51.042C87.5417 51.174 87.8417 51.24 88.1897 51.24C88.6097 51.24 88.9397 51.108 89.1797 50.844C89.4197 50.58 89.6297 50.208 89.8097 49.728L90.4217 48.108L86.9657 39.576H88.4597L91.1057 46.542Z" fill="#00B285"/>
</svg>
